<?xml version="1.0" encoding="iso-8859-1"?>
<!-- Generator: Adobe Illustrator 19.0.0, SVG Export Plug-In . SVG Version: 6.00 Build 0)  -->
<svg version="1.1" id="Layer_1" xmlns="http://www.w3.org/2000/svg" xmlns:xlink="http://www.w3.org/1999/xlink" x="0px" y="0px"
	 viewBox="0 0 512 512" style="enable-background:new 0 0 512 512;" xml:space="preserve">
<g>
	<polygon style="fill:#78B9EB;" points="443.194,220.267 360.135,220.267 360.135,182.157 409.551,182.157 421.662,85.267 
		459.478,89.994 	"/>
	<polygon style="fill:#78B9EB;" points="482.723,369.586 417.447,291.255 360.135,291.255 360.135,253.146 435.298,253.146 
		512,345.188 	"/>
	<polygon style="fill:#78B9EB;" points="437.356,492.905 385.594,376.442 360.135,376.442 360.135,338.332 410.36,338.332 
		472.18,477.427 	"/>
</g>
<g>
	<polygon style="fill:#93C7EF;" points="151.865,220.267 68.806,220.267 52.522,89.994 90.338,85.267 102.448,182.157 
		151.865,182.157 	"/>
	<polygon style="fill:#93C7EF;" points="29.277,369.586 0,345.188 76.702,253.146 151.865,253.146 151.865,291.255 94.553,291.255 	
		"/>
	<polygon style="fill:#93C7EF;" points="74.644,492.905 39.82,477.427 101.64,338.332 151.865,338.332 151.865,376.442 
		126.406,376.442 	"/>
	<polygon style="fill:#93C7EF;" points="255.999,170.606 155.808,42.583 185.819,19.095 255.999,108.771 326.181,19.095 
		356.192,42.583 	"/>
</g>
<path style="fill:#FF9811;" d="M352.473,135.254c-25.062-40.098-59.324-62.182-96.472-62.182c-37.149,0-71.411,22.085-96.472,62.182
	c-23.321,37.313-36.164,86.537-36.164,138.602s12.843,101.288,36.164,138.601c25.062,40.099,59.324,62.184,96.473,62.184
	s71.41-22.085,96.472-62.184c23.321-37.313,36.164-86.536,36.164-138.601S375.793,172.568,352.473,135.254z"/>
<path style="fill:#FF5023;" d="M255.999,474.643c37.149,0,71.41-22.085,96.472-62.184c23.321-37.313,36.164-86.536,36.164-138.601
	s-12.843-101.289-36.164-138.602c-25.062-40.098-59.324-62.182-96.472-62.182"/>
<path style="fill:#0052B4;" d="M374.287,182.157c-5.691-17.007-13.004-32.806-21.814-46.903
	c-25.062-40.098-59.324-62.182-96.472-62.182c-37.149,0-71.411,22.085-96.472,62.182c-8.811,14.097-16.122,29.896-21.814,46.903
	H374.287z"/>
<path style="fill:#003778;" d="M255.999,182.157h118.287c-5.691-17.007-13.004-32.806-21.814-46.903
	c-25.062-40.098-59.324-62.182-96.472-62.182v109.085H255.999z"/>
<g>
</g>
<g>
</g>
<g>
</g>
<g>
</g>
<g>
</g>
<g>
</g>
<g>
</g>
<g>
</g>
<g>
</g>
<g>
</g>
<g>
</g>
<g>
</g>
<g>
</g>
<g>
</g>
<g>
</g>
</svg>
